HIERARCHY
ROOT Hips
{
  OFFSET -35.4901 99.2528 17.4586
  CHANNELS 6 Xposition Yposition Zposition Zrotation Xrotation Yrotation
  JOINT LeftUpLeg
  {
    OFFSET 8.64259 1.95398 -2.38835
    CHANNELS 3 Zrotation Xrotation Yrotation
    JOINT LeftLeg
    {
      OFFSET 43.7702 0 0
      CHANNELS 3 Zrotation Xrotation Yrotation
      JOINT LeftFoot
      {
        OFFSET 40.6238 0 0
        CHANNELS 3 Zrotation Xrotation Yrotation
        JOINT LeftToeBase
        {
          OFFSET 12.7242 0 0
          CHANNELS 3 Zrotation Xrotation Yrotation
          End Site
          {
            OFFSET 0 0 0
          }
        }
      }
    }
  }
  JOINT RightUpLeg
  {
    OFFSET -8.2249 1.95398 -2.59336
    CHANNELS 3 Zrotation Xrotation Yrotation
    JOINT RightLeg
    {
      OFFSET 43.5653 0 0
      CHANNELS 3 Zrotation Xrotation Yrotation
      JOINT RightFoot
      {
        OFFSET 40.6238 0 0
        CHANNELS 3 Zrotation Xrotation Yrotation
        JOINT RightToeBase
        {
          OFFSET 12.7242 0 0
          CHANNELS 3 Zrotation Xrotation Yrotation
          End Site
          {
            OFFSET 0 0 0
          }
        }
      }
    }
  }
  JOINT Spine
  {
    OFFSET 0.165834 0.87714 6.61349
    CHANNELS 3 Zrotation Xrotation Yrotation
    JOINT Spine1
    {
      OFFSET 7.38963 1.71661e-005 0
      CHANNELS 3 Zrotation Xrotation Yrotation
      JOINT Spine2
      {
        OFFSET 11.9445 1.14441e-005 0
        CHANNELS 3 Zrotation Xrotation Yrotation
        JOINT Spine3
        {
          OFFSET 14.7254 4.19617e-005 0
          CHANNELS 3 Zrotation Xrotation Yrotation
          JOINT Spine4
          {
            OFFSET 10.9679 0 0
            CHANNELS 3 Zrotation Xrotation Yrotation
            JOINT RightShoulder
            {
              OFFSET 2.46616 -1.6653 3.69651
              CHANNELS 3 Zrotation Xrotation Yrotation
              JOINT RightArm
              {
                OFFSET 13.0012 0 0
                CHANNELS 3 Zrotation Xrotation Yrotation
                JOINT RightForeArm
                {
                  OFFSET 28.7848 1.52588e-005 0
                  CHANNELS 3 Zrotation Xrotation Yrotation
                  JOINT RightHand
                  {
                    OFFSET 26.5688 1.52588e-005 0
                    CHANNELS 3 Zrotation Xrotation Yrotation
                    End Site
                    {
                      OFFSET 0 0 0
                    }
                  }
                }
              }
            }
            JOINT LeftShoulder
            {
              OFFSET 2.38034 -1.29275 -3.7523
              CHANNELS 3 Zrotation Xrotation Yrotation
              JOINT LeftArm
              {
                OFFSET 16.3182 6.10351e-005 0
                CHANNELS 3 Zrotation Xrotation Yrotation
                JOINT LeftForeArm
                {
                  OFFSET 27.0901 0 0
                  CHANNELS 3 Zrotation Xrotation Yrotation
                  JOINT LeftHand
                  {
                    OFFSET 24.5451 1.52588e-005 0
                    CHANNELS 3 Zrotation Xrotation Yrotation
                    End Site
                    {
                      OFFSET 0 0 0
                    }
                  }
                }
              }
            }
            JOINT Neck
            {
              OFFSET 5.0226 -0.0266342 0
              CHANNELS 3 Zrotation Xrotation Yrotation
              JOINT Head
              {
                OFFSET 6.69364 2.86102e-005 0
                CHANNELS 3 Zrotation Xrotation Yrotation
                End Site
                {
                  OFFSET 0 0 0
                }
              }
            }
          }
        }
      }
    }
  }
}
MOTION
Frames:	10
Frame Time:	0.0416667
-25.4475 88.8296 19.4669 101.877 49.2106 83.5087 -171.89 30.2548 88.4893 -7.79518 20.2137 0.412521 51.2852 5.92529 -13.2585 132.358 -25.0479 -49.4638 172.594 31.0383 96.479 -49.9512 -7.54635 2.42776 74.8738 -2.77109 -2.4654 19.08 -2.2639 5.96047 -0.839168 7.85849 -90.183 11.1558 -1.75522 -0.193067 -0.51405 -1.76201 -0.115617 -23.0571 -1.61606 -0.711792 -3.0445 -1.61603 -0.711783 88.6922 -34.4022 -107.61 42.0993 -4.10774 5.01396 5.57302 -23.3593 -9.3591 -19.985 -0.0499866 -8.13907 -85.9549 -46.4256 84.2578 -22.1914 11.0172 -32.2033 4.85379 12.7339 -7.85887 -0.187749 -0.166865 -8.16587 5.00844 -2.14473 -9.41213 -2.85368 -0.396653 1.50226 
-17.75 87.5281 11.9309 103.073 47.1478 84.1635 -170.187 27.4309 90.1091 -4.2653 21.6243 0.285023 47.0493 4.73591 -14.9423 132.404 -26.7114 -53.0174 172.424 26.3604 97.6155 -58.5666 -9.22096 3.32613 85.2051 -7.229 -2.20598 17.4735 -2.3635 6.17849 -0.457884 7.95592 -90.4405 10.958 -1.11546 -0.771232 -0.712627 -1.14829 -0.721405 -23.2484 -0.832099 -1.07081 -3.23575 -0.832091 -1.07081 88.6224 -33.1324 -108.216 39.7678 -6.85794 0.61172 5.65549 -23.9858 -10.8443 -22.9096 -0.0965646 -7.57443 -85.7641 -48.9786 84.9362 -23.6289 12.4447 -24.956 1.24442 13.5774 -0.421427 -0.276912 -0.120735 -6.11153 5.36058 -1.29918 -6.05487 -2.81085 -0.157624 0.716398 
-11.4962 87.7348 5.56623 102.996 47.1851 82.6983 -171.44 26.0923 88.9247 -3.08765 11.1772 0.19072 46.7751 11.4737 -22.7621 136.594 -26.3598 -47.4139 172.073 19.9375 95.7357 -60.1054 -10.2435 2.20002 92.8476 -9.54315 -1.33035 19.817 -1.79392 4.97674 -0.217087 8.00911 -90.2517 10.8544 -0.548452 -0.449348 -0.816481 -0.567693 -0.424782 -23.3515 -0.388045 -0.593407 -3.33889 -0.388053 -0.593414 88.639 -32.8329 -108.301 36.8155 -6.25863 -5.34417 3.91687 -23.412 -13.9874 -25.9047 -0.17208 -6.77756 -85.3723 -49.587 85.6216 -26.5106 12.8387 -14.3867 0.721647 10.7975 0.00111562 -0.842407 -0.10408 -5.38446 3.79465 -1.53609 -6.02749 -1.61344 -0.469894 0.945358 
-7.1167 89.6575 0.50359 101.28 44.9364 81.6293 -174.177 26.2897 88.2357 -4.24418 -4.61912 0.0402901 51.1897 15.6993 -31.7711 144.385 -23.8286 -35.4289 172.282 13.4799 93.118 -55.2148 -12.7067 -0.138232 94.4578 -11.0336 -2.05943 20.7186 -2.07479 5.58621 0.371108 8.0522 -89.9438 10.7685 0.765004 0.0409282 -0.902202 0.766059 0.00721708 -23.4388 0.71732 0.26896 -3.42612 0.717332 0.26896 89.0378 -30.9823 -108.267 35.5286 -5.81509 -10.1289 0.171521 -23.5963 -19.5465 -26.0924 -0.0142506 -7.57225 -84.7635 -50.303 86.635 -26.4517 15.247 -4.75781 1.30726 10.8899 -7.2912 -1.7967 -0.0983919 -5.77105 4.46505 -2.11987 -3.65203 -1.64507 -1.44046 -0.814947 
-3.33863 91.5945 -4.38011 100.628 42.7336 81.7402 -177.832 26.6566 89.4215 -6.98538 -0.755777 0.00443918 51.9743 7.35695 -25.4401 144.504 -17.9483 -25.0511 172.188 5.63918 91.9304 -47.5021 -15.1191 -1.03492 93.0568 -12.0793 -2.1305 22.733 -2.45172 6.46794 0.938241 8.17705 -89.9288 10.5209 1.9016 -0.0286439 -1.14858 1.89847 -0.112338 -23.6944 1.82224 0.544387 -3.68175 1.82225 0.544383 88.8418 -28.9216 -109.5 33.5602 -5.81113 -13.989 -2.23486 -23.8658 -24.0424 -26.9762 0.0965062 -8.07176 -84.255 -53.3777 87.7446 -24.517 13.9184 1.23651 2.1607 10.3579 -9.97545 -2.27169 -0.0886212 -5.31504 4.69588 -2.74562 1.68562 -0.0702893 -3.07413 -4.65081 
1.50725 93.0011 -10.11 102.024 42.4591 80.8269 -179.975 24.7135 89.5876 -8.23599 -0.721532 -1.40946 47.5883 0.203815 -19.3227 116.491 -5.9442 -6.14253 171.203 -5.48565 89.1539 -36.453 -16.7259 -1.37045 91.9121 -13.5335 -3.85876 22.2034 -2.55516 6.68331 1.21802 8.33283 -90.0315 10.2126 2.41257 -0.267766 -1.45617 2.39845 -0.373761 -24.009 2.38143 0.470116 -3.99633 2.38145 0.470119 88.7771 -28.2229 -109.934 31.0715 -5.88948 -16.9766 -3.06214 -26.749 -24.6787 -27.3434 0.102751 -8.4724 -83.4125 -56.0536 89.2246 -24.6716 9.32364 3.81563 3.05235 9.64157 -7.39595 -2.48568 -0.0904339 -4.87293 4.09408 -3.0266 4.58789 0.759104 -3.91208 -5.97144 
7.86454 93.3797 -17.2677 101.475 40.4372 80.6406 179.884 21.1795 88.2268 -8.48091 -3.15406 -2.48306 49.0302 -1.17096 -12.5782 81.318 -2.62854 2.98835 168.734 -14.7995 86.0354 -28.4099 -20.0621 -1.74912 87.9846 -13.2362 -4.73273 27.1825 -2.77192 7.40187 1.54268 8.22095 -89.9496 10.4373 3.09619 -0.17266 -1.23001 3.08561 -0.308901 -23.7936 3.00481 0.766716 -3.78095 3.00481 0.766712 88.2584 -28.6617 -110.781 30.8587 -6.55618 -17.4335 -1.89304 -27.213 -21.7534 -25.7672 -0.0244506 -8.10608 -82.5104 -57.3962 90.6016 -25.9068 8.09761 5.29829 2.5214 4.82717 -5.87233 -3.35796 -0.0774681 -5.88841 3.69314 -3.07887 4.40291 0.163891 -3.88551 -5.78387 
15.4087 94.5429 -25.5231 100.505 38.3304 80.2178 -179.395 16.3811 85.6129 -10.7401 0.202174 -2.39146 54.2267 0.0567347 -5.89764 36.6076 -4.52879 8.62859 167.779 -16.9573 82.6833 -31.7853 -21.5562 -4.00583 73.7942 -6.84996 -5.11596 42.3316 -4.20984 14.1913 1.61007 7.99353 -89.7128 10.8863 3.33848 0.257822 -0.780404 3.3466 0.110469 -23.3462 3.10651 1.2502 -3.33351 3.10649 1.25021 88.1422 -28.8801 -110.914 35.0517 -8.80021 -15.3215 0.968377 -26.0211 -17.0682 -24.6516 -0.138559 -7.4379 -81.4407 -57.8847 92.1209 -26.5347 5.63168 5.77965 3.96831 5.08304 -7.12751 -5.15772 -0.0469055 -6.16792 5.12744 -2.69274 3.02751 -1.66817 -3.21512 -5.61245 
22.3314 95.4386 -32.8924 102.26 38.685 77.1899 -178.378 15.0463 82.4379 -25.3499 3.18334 -3.23028 64.7627 2.49108 -5.16002 14.9898 -8.02984 11.5658 169.705 -8.92897 79.6402 -51.2661 -24.0035 -5.51691 56.3021 1.2454 0.708346 35.7034 -3.46805 10.8096 1.22568 8.02067 -89.4456 10.8243 2.69654 0.852553 -0.844074 2.73146 0.732969 -23.3946 2.31563 1.62388 -3.38199 2.31562 1.62388 87.9378 -29.451 -111.065 38.7503 -10.9415 -11.0826 2.9895 -25.9593 -14.7563 -24.5677 -0.138123 -7.43177 -82.574 -56.2713 90.4261 -25.135 8.08156 -0.345655 2.74339 6.2422 -4.39725 -4.80231 -0.053133 -6.2088 5.17932 -2.4724 1.00711 -1.34379 -2.63879 -5.08482 
28.092 96.3344 -38.4168 103.43 37.9105 75.7401 -178.357 9.98957 81.5051 -29.9939 1.96291 -4.18477 72.4616 4.9372 -2.81894 10.8556 -4.82615 7.28794 176.253 2.72562 80.7757 -66.0305 -23.9544 -6.05746 62.2227 -1.65507 -0.85804 27.6001 -2.4095 6.41881 0.894884 8.18398 -89.3055 10.4927 2.10129 1.19315 -1.177 2.15176 1.09948 -23.717 1.6456 1.76954 -3.70436 1.64557 1.76953 88.0034 -30.313 -110.555 40.4128 -12.0781 -8.10963 3.57346 -26.8161 -13.979 -24.9346 -0.21385 -7.12396 -83.4207 -55.0092 89.1161 -20.0764 9.14106 -11.3677 2.04495 6.26879 -2.69866 -0.577694 -0.0957979 -5.03251 4.91984 -1.83949 -0.4709 -1.13999 -1.75642 -5.12063 
